<svg width="256" height="256" viewBox="0 0 256 256" fill="none" xmlns="http://www.w3.org/2000/svg">
<circle cx="128" cy="128" r="128" fill="#171717"/>
<path d="M179.178 92.754C174.236 87.2388 162.276 75.8966 145.435 73.3126C139.248 72.3955 132.953 74.2986 127.997 78.2919C123.05 74.5349 116.753 72.6071 110.538 73.5478C88.62 76.9138 74.8425 95.2423 74.265 96.0353C72.1079 98.9583 72.744 103.068 75.6744 105.215C76.8046 106.043 78.1723 106.49 79.5766 106.488C81.6133 106.488 83.6164 105.565 84.9061 103.813C85.0178 103.659 95.9584 89.0722 112.544 86.5237C114.594 86.261 116.663 86.7069 118.473 87.7496L102.48 103.992C99.07 107.356 96.9525 111.621 96.9525 116.652C96.9525 121.438 98.8258 125.933 102.221 129.31C105.862 132.703 110.372 134.317 115.185 134.317C119.998 134.317 124.518 132.454 127.92 129.069L131.042 125.966L165.197 153.556C165.832 154.068 165.927 154.991 165.334 155.735L157.719 165.51C157.212 166.125 156.276 166.22 155.751 165.801L149.641 160.69L142.439 168.278C141.794 169.064 140.969 169.253 140.539 169.295C140.084 169.338 139.285 169.329 138.666 168.825L129.753 161.262L125.443 165.27L124.669 166.073C123.062 168.03 120.794 169.261 118.267 169.518C115.663 169.741 113.248 169.04 111.53 167.664L86.8325 145.445H66.4V93.0821H40V162.973L57.6 162.984C60.8285 162.984 63.5318 161.15 65.0635 158.57H81.7395L102.931 177.618C107.018 180.938 112.022 182.688 117.22 182.688C118.011 182.688 118.81 182.653 119.6 182.568C123.346 182.183 126.863 180.91 129.905 178.876L130.154 179.099C133.462 181.799 137.656 183.039 141.894 182.593C145.521 182.217 148.846 180.67 151.219 178.396C157.019 180.635 163.894 179.037 168.063 173.892L175.677 164.117C180.757 157.877 179.794 148.673 173.52 143.607L140.438 116.875L142.742 114.583C145.321 112.02 145.321 107.865 142.742 105.303C140.164 102.739 135.988 102.739 133.409 105.303L118.595 120.016C116.78 121.848 113.618 121.848 111.803 120.016C110.892 119.118 110.393 117.922 110.393 116.65C110.393 115.368 110.891 114.171 111.845 113.224L135.471 89.2595C137.619 87.1144 140.566 86.0466 143.429 86.5169C159.86 89.038 170.984 103.67 171.094 103.823C171.943 104.959 173.092 105.722 174.35 106.113H189.6V153.992C189.6 158.824 193.541 162.756 198.152 162.756L216 163V93.0275L179.178 92.754ZM53.2 154.25C50.7938 154.25 48.8 152.269 48.8 149.878C48.8 147.451 50.7938 145.506 53.2 145.506C55.6063 145.506 57.6 147.469 57.6 149.902C57.6 152.281 55.6063 154.25 53.2 154.25ZM202.8 154.25C200.394 154.25 198.4 152.269 198.4 149.878C198.4 147.451 200.394 145.506 202.8 145.506C205.206 145.506 207.2 147.452 207.2 149.878C207.2 152.281 205.22 154.25 202.8 154.25Z" fill="white"/>
</svg>
